<svg version="1.1" viewBox="0.0 0.0 960.0 540.0" fill="none" stroke="none" stroke-linecap="square" stroke-miterlimit="10" xmlns:xlink="http://www.w3.org/1999/xlink" xmlns="http://www.w3.org/2000/svg"><clipPath id="g3c241ef9eef_0_0.0"><path d="m0 0l960.0 0l0 540.0l-960.0 0l0 -540.0z" clip-rule="nonzero"/></clipPath><g clip-path="url(#g3c241ef9eef_0_0.0)"><path fill="#000000" fill-opacity="0.0" d="m0 0l960.0 0l0 540.0l-960.0 0z" fill-rule="evenodd"/><path fill="#000000" d="m361.82678 240.88846l0 0c0 -30.597458 24.804108 -55.40158 55.40155 -55.40158l0 0c14.69342 0 28.785034 5.8369293 39.174835 16.226746c10.389832 10.389816 16.226746 24.481415 16.226746 39.174835l0 0c0 30.597443 -24.804108 55.40158 -55.40158 55.40158l0 0c-30.597443 0 -55.40155 -24.804138 -55.40155 -55.40158zm28.579437 0c0 14.813446 12.008667 26.822113 26.822113 26.822113c14.813446 0 26.822144 -12.008667 26.822144 -26.822113l0 0c0 -14.813461 -12.0086975 -26.822128 -26.822144 -26.822128l0 0c-14.813446 0 -26.822113 12.008667 -26.822113 26.822128z" fill-rule="evenodd"/><path stroke="#000000" stroke-width="1.0" stroke-linejoin="round" stroke-linecap="butt" d="m361.82678 240.88846l0 0c0 -30.597458 24.804108 -55.40158 55.40155 -55.40158l0 0c14.69342 0 28.785034 5.8369293 39.174835 16.226746c10.389832 10.389816 16.226746 24.481415 16.226746 39.174835l0 0c0 30.597443 -24.804108 55.40158 -55.40158 55.40158l0 0c-30.597443 0 -55.40155 -24.804138 -55.40155 -55.40158zm28.579437 0c0 14.813446 12.008667 26.822113 26.822113 26.822113c14.813446 0 26.822144 -12.008667 26.822144 -26.822113l0 0c0 -14.813461 -12.0086975 -26.822128 -26.822144 -26.822128l0 0c-14.813446 0 -26.822113 12.008667 -26.822113 26.822128z" fill-rule="evenodd"/><path fill="#000000" d="m361.82678 240.88846l0 0c0 -52.83522 52.43869 -95.76308 117.40134 -96.1082c64.962616 -0.34510803 118.086395 42.021957 118.93503 94.85266l-27.999573 0.29751587l0 0c-0.6970215 -37.4252 -41.245605 -67.413025 -90.79776 -67.14978c-49.552185 0.26324463 -89.5383 30.67891 -89.5383 68.1078z" fill-rule="evenodd"/><path stroke="#000000" stroke-width="1.0" stroke-linejoin="round" stroke-linecap="butt" d="m361.82678 240.88846l0 0c0 -52.83522 52.43869 -95.76308 117.40134 -96.1082c64.962616 -0.34510803 118.086395 42.021957 118.93503 94.85266l-27.999573 0.29751587l0 0c-0.6970215 -37.4252 -41.245605 -67.413025 -90.79776 -67.14978c-49.552185 0.26324463 -89.5383 30.67891 -89.5383 68.1078z" fill-rule="evenodd"/><path fill="#000000" d="m598.1732 299.11154l0 0c0 30.597443 -24.804138 55.40158 -55.40155 55.40158l0 0c-14.69342 0 -28.785034 -5.8369446 -39.174835 -16.226746c-10.389832 -10.389801 -16.226746 -24.481415 -16.226746 -39.174835l0 0c0 -30.597443 24.804108 -55.401566 55.40158 -55.401566l0 0c30.597412 0 55.40155 24.804123 55.40155 55.401566zm-28.579468 0c0 -14.813446 -12.008667 -26.822113 -26.822083 -26.822113c-14.813477 0 -26.822144 12.008667 -26.822144 26.822113l0 0c0 14.813446 12.008667 26.822113 26.822144 26.822113l0 0c14.813416 0 26.822083 -12.008667 26.822083 -26.822113z" fill-rule="evenodd"/><path stroke="#000000" stroke-width="1.0" stroke-linejoin="round" stroke-linecap="butt" d="m598.1732 299.11154l0 0c0 30.597443 -24.804138 55.40158 -55.40155 55.40158l0 0c-14.69342 0 -28.785034 -5.8369446 -39.174835 -16.226746c-10.389832 -10.389801 -16.226746 -24.481415 -16.226746 -39.174835l0 0c0 -30.597443 24.804108 -55.401566 55.40158 -55.401566l0 0c30.597412 0 55.40155 24.804123 55.40155 55.401566zm-28.579468 0c0 -14.813446 -12.008667 -26.822113 -26.822083 -26.822113c-14.813477 0 -26.822144 12.008667 -26.822144 26.822113l0 0c0 14.813446 12.008667 26.822113 26.822144 26.822113l0 0c14.813416 0 26.822083 -12.008667 26.822083 -26.822113z" fill-rule="evenodd"/><path fill="#000000" d="m598.1732 299.11154l0 0c0 52.835236 -52.43866 95.76309 -117.40134 96.108185c-64.96265 0.3451233 -118.086365 -42.021942 -118.93503 -94.85266l27.999603 -0.29748535l0 0c0.69699097 37.42517 41.245575 67.412994 90.79773 67.14975c49.552155 -0.2632141 89.5383 -30.678894 89.5383 -68.10779z" fill-rule="evenodd"/><path stroke="#000000" stroke-width="1.0" stroke-linejoin="round" stroke-linecap="butt" d="m598.1732 299.11154l0 0c0 52.835236 -52.43866 95.76309 -117.40134 96.108185c-64.96265 0.3451233 -118.086365 -42.021942 -118.93503 -94.85266l27.999603 -0.29748535l0 0c0.69699097 37.42517 41.245575 67.412994 90.79773 67.14975c49.552155 -0.2632141 89.5383 -30.678894 89.5383 -68.10779z" fill-rule="evenodd"/></g></svg>